<svg xmlns="http://www.w3.org/2000/svg"  viewBox="0 0 64 64" width="128px" height="128px"><linearGradient id="AkLBDwIexvY7mNPQhxR82a" x1="35.44" x2="35.565" y1="16.727" y2="57.748" gradientUnits="userSpaceOnUse"><stop offset="0" stop-color="#6dc7ff"/><stop offset="1" stop-color="#e6abff"/></linearGradient><polygon fill="url(#AkLBDwIexvY7mNPQhxR82a)" points="32,32 32,35 35,35 35,38 39,38 38,35 38,32 35,32"/><linearGradient id="AkLBDwIexvY7mNPQhxR82b" x1="39.906" x2="40.072" y1="8.652" y2="63.277" gradientUnits="userSpaceOnUse"><stop offset="0" stop-color="#6dc7ff"/><stop offset="1" stop-color="#e6abff"/></linearGradient><polygon fill="url(#AkLBDwIexvY7mNPQhxR82b)" points="41,41 42,38 41.01,38 38,37 38,41"/><linearGradient id="AkLBDwIexvY7mNPQhxR82c" x1="45.915" x2="46.081" y1="10.68" y2="65.181" gradientUnits="userSpaceOnUse"><stop offset="0" stop-color="#6dc7ff"/><stop offset="1" stop-color="#e6abff"/></linearGradient><polygon fill="url(#AkLBDwIexvY7mNPQhxR82c)" points="44,35 44,39 48,38 47,35"/><linearGradient id="AkLBDwIexvY7mNPQhxR82d" x1="39.444" x2="39.61" y1="11.691" y2="66.191" gradientUnits="userSpaceOnUse"><stop offset="0" stop-color="#6dc7ff"/><stop offset="1" stop-color="#e6abff"/></linearGradient><polygon fill="url(#AkLBDwIexvY7mNPQhxR82d)" points="38,32 41,32 41,28 38,29"/><linearGradient id="AkLBDwIexvY7mNPQhxR82e" x1="41.955" x2="42.121" y1="12.63" y2="67.256" gradientUnits="userSpaceOnUse"><stop offset="0" stop-color="#6dc7ff"/><stop offset="1" stop-color="#e6abff"/></linearGradient><polygon fill="url(#AkLBDwIexvY7mNPQhxR82e)" points="40,29 44,29 44,26 41,25"/><linearGradient id="AkLBDwIexvY7mNPQhxR82f" x1="44.968" x2="45.135" y1="13.643" y2="68.144" gradientUnits="userSpaceOnUse"><stop offset="0" stop-color="#6dc7ff"/><stop offset="1" stop-color="#e6abff"/></linearGradient><polygon fill="url(#AkLBDwIexvY7mNPQhxR82f)" points="44,23 43,26 47,26 47,22"/><linearGradient id="AkLBDwIexvY7mNPQhxR82g" x1="50.953" x2="51.119" y1="13.623" y2="68.134" gradientUnits="userSpaceOnUse"><stop offset="0" stop-color="#6dc7ff"/><stop offset="1" stop-color="#e6abff"/></linearGradient><polygon fill="url(#AkLBDwIexvY7mNPQhxR82g)" points="47,26 47,29 51,29 52.57,30 54,29 55,29 54,26"/><linearGradient id="AkLBDwIexvY7mNPQhxR82h" x1="50.93" x2="51.073" y1="13.654" y2="60.494" gradientUnits="userSpaceOnUse"><stop offset="0" stop-color="#6dc7ff"/><stop offset="1" stop-color="#e6abff"/></linearGradient><polygon fill="url(#AkLBDwIexvY7mNPQhxR82h)" points="51,32 50,32 48,32 47,32 47,35 48,35 50,36 51,38 55,38 54,32 54,31 52.531,30 51,31"/><linearGradient id="AkLBDwIexvY7mNPQhxR82i" x1="48.88" x2="49.087" y1="1.647" y2="69.703" gradientUnits="userSpaceOnUse"><stop offset="0" stop-color="#6dc7ff"/><stop offset="1" stop-color="#e6abff"/></linearGradient><polygon fill="url(#AkLBDwIexvY7mNPQhxR82i)" points="47,38 46,41 47,41 50,42 52,41 51,38 50,37"/><linearGradient id="AkLBDwIexvY7mNPQhxR82j" x1="42.882" x2="43.025" y1="12.766" y2="59.694" gradientUnits="userSpaceOnUse"><stop offset="0" stop-color="#6dc7ff"/><stop offset="1" stop-color="#e6abff"/></linearGradient><polygon fill="url(#AkLBDwIexvY7mNPQhxR82j)" points="44,46 44,47 44,48 41,48 38,48 38,51 48,52 47,44 44,44"/><linearGradient id="AkLBDwIexvY7mNPQhxR82k" x1="32.368" x2="32.535" y1="6.359" y2="60.984" gradientUnits="userSpaceOnUse"><stop offset="0" stop-color="#6dc7ff"/><stop offset="1" stop-color="#e6abff"/></linearGradient><polygon fill="url(#AkLBDwIexvY7mNPQhxR82k)" points="34,48 31,48 31,51 34,52"/><linearGradient id="AkLBDwIexvY7mNPQhxR82l" x1="27.369" x2="27.535" y1="6.379" y2="61.004" gradientUnits="userSpaceOnUse"><stop offset="0" stop-color="#6dc7ff"/><stop offset="1" stop-color="#e6abff"/></linearGradient><polygon fill="url(#AkLBDwIexvY7mNPQhxR82l)" points="29,48 26,48 26,51 29,52"/><linearGradient id="AkLBDwIexvY7mNPQhxR82m" x1="21.369" x2="21.535" y1="6.404" y2="61.029" gradientUnits="userSpaceOnUse"><stop offset="0" stop-color="#6dc7ff"/><stop offset="1" stop-color="#e6abff"/></linearGradient><polygon fill="url(#AkLBDwIexvY7mNPQhxR82m)" points="20,51 23,52 23,48 20,48"/><linearGradient id="AkLBDwIexvY7mNPQhxR82n" x1="27.422" x2="27.547" y1="16.759" y2="57.759" gradientUnits="userSpaceOnUse"><stop offset="0" stop-color="#6dc7ff"/><stop offset="1" stop-color="#e6abff"/></linearGradient><rect width="3" height="3" x="26" y="41" fill="url(#AkLBDwIexvY7mNPQhxR82n)"/><linearGradient id="AkLBDwIexvY7mNPQhxR82o" x1="24.431" x2="24.556" y1="16.768" y2="57.769" gradientUnits="userSpaceOnUse"><stop offset="0" stop-color="#6dc7ff"/><stop offset="1" stop-color="#e6abff"/></linearGradient><rect width="3" height="3" x="23" y="38" fill="url(#AkLBDwIexvY7mNPQhxR82o)"/><linearGradient id="AkLBDwIexvY7mNPQhxR82p" x1="15.917" x2="16.059" y1="13.796" y2="60.221" gradientUnits="userSpaceOnUse"><stop offset="0" stop-color="#6dc7ff"/><stop offset="1" stop-color="#e6abff"/></linearGradient><polygon fill="url(#AkLBDwIexvY7mNPQhxR82p)" points="16,47 20,48 20,44 23,44 23,41 20,41 20,38 17,38 17,35 20,35 20,32 17,31 13,32 12,34 10,35 9,41 10,44"/><linearGradient id="AkLBDwIexvY7mNPQhxR82q" x1="20.963" x2="21.088" y1="16.764" y2="57.805" gradientUnits="userSpaceOnUse"><stop offset="0" stop-color="#6dc7ff"/><stop offset="1" stop-color="#e6abff"/></linearGradient><polygon fill="url(#AkLBDwIexvY7mNPQhxR82q)" points="23,29 19,29 20,32 23,32"/><linearGradient id="AkLBDwIexvY7mNPQhxR82r" x1="24.467" x2="24.592" y1="16.768" y2="57.768" gradientUnits="userSpaceOnUse"><stop offset="0" stop-color="#6dc7ff"/><stop offset="1" stop-color="#e6abff"/></linearGradient><rect width="3" height="3" x="23" y="26" fill="url(#AkLBDwIexvY7mNPQhxR82r)"/><linearGradient id="AkLBDwIexvY7mNPQhxR82s" x1="18.476" x2="18.622" y1="15.26" y2="63.051" gradientUnits="userSpaceOnUse"><stop offset="0" stop-color="#6dc7ff"/><stop offset="1" stop-color="#e6abff"/></linearGradient><polygon fill="url(#AkLBDwIexvY7mNPQhxR82s)" points="21,23 20,20 18.499,19 17,20 16,23 17,26 20,26"/><linearGradient id="AkLBDwIexvY7mNPQhxR82t" x1="20.993" x2="21.2" y1="15.644" y2="83.71" gradientUnits="userSpaceOnUse"><stop offset="0" stop-color="#6dc7ff"/><stop offset="1" stop-color="#e6abff"/></linearGradient><polygon fill="url(#AkLBDwIexvY7mNPQhxR82t)" points="23,16 20,17 19,20 21.563,21 23,20"/><linearGradient id="AkLBDwIexvY7mNPQhxR82u" x1="31.991" x2="32.199" y1="15.583" y2="83.751" gradientUnits="userSpaceOnUse"><stop offset="0" stop-color="#6dc7ff"/><stop offset="1" stop-color="#e6abff"/></linearGradient><polygon fill="url(#AkLBDwIexvY7mNPQhxR82u)" points="35,21 35,17 29,16 29,20 32,20"/><linearGradient id="AkLBDwIexvY7mNPQhxR82v" x1="36.464" x2="36.607" y1="15.278" y2="62.092" gradientUnits="userSpaceOnUse"><stop offset="0" stop-color="#6dc7ff"/><stop offset="1" stop-color="#e6abff"/></linearGradient><polygon fill="url(#AkLBDwIexvY7mNPQhxR82v)" points="34,27 39,27 38,20 38,19 35,20"/><linearGradient id="AkLBDwIexvY7mNPQhxR82w" x1="21.344" x2="21.509" y1="3.893" y2="58.023" gradientUnits="userSpaceOnUse"><stop offset="0" stop-color="#6dc7ff"/><stop offset="1" stop-color="#e6abff"/></linearGradient><polygon fill="url(#AkLBDwIexvY7mNPQhxR82w)" points="17,54 16,57 20,57 23,57 26,57 27,53"/><linearGradient id="AkLBDwIexvY7mNPQhxR82x" x1="33.349" x2="33.515" y1="3.398" y2="57.982" gradientUnits="userSpaceOnUse"><stop offset="0" stop-color="#6dc7ff"/><stop offset="1" stop-color="#e6abff"/></linearGradient><polygon fill="url(#AkLBDwIexvY7mNPQhxR82x)" points="28,53 29,57 32,57 35,57 38,57 39,53"/><g><linearGradient id="AkLBDwIexvY7mNPQhxR82y" x1="30.5" x2="30.5" y1="6.781" y2="57.29" gradientUnits="userSpaceOnUse"><stop offset="0" stop-color="#1a6dff"/><stop offset="1" stop-color="#c822ff"/></linearGradient><polygon fill="url(#AkLBDwIexvY7mNPQhxR82y)" points="41,14 41,10 41,7 26,7 26,10 23,10 23,13 20,13 20,17 23,17 26,17 29,17 32,17 35,17 35,20 38,20 38,14"/><linearGradient id="AkLBDwIexvY7mNPQhxR82z" x1="33.5" x2="33.5" y1="6.781" y2="57.29" gradientUnits="userSpaceOnUse"><stop offset="0" stop-color="#1a6dff"/><stop offset="1" stop-color="#c822ff"/></linearGradient><rect width="3" height="10" x="32" y="20" fill="url(#AkLBDwIexvY7mNPQhxR82z)"/><linearGradient id="AkLBDwIexvY7mNPQhxR82A" x1="41" x2="41" y1="6.781" y2="57.29" gradientUnits="userSpaceOnUse"><stop offset="0" stop-color="#1a6dff"/><stop offset="1" stop-color="#c822ff"/></linearGradient><polygon fill="url(#AkLBDwIexvY7mNPQhxR82A)" points="41,20 38,20 38,29 41,29 41,26 44,26 44,23 41,23"/><linearGradient id="AkLBDwIexvY7mNPQhxR82B" x1="49" x2="49" y1="6.781" y2="57.29" gradientUnits="userSpaceOnUse"><stop offset="0" stop-color="#1a6dff"/><stop offset="1" stop-color="#c822ff"/></linearGradient><rect width="10" height="3" x="44" y="20" fill="url(#AkLBDwIexvY7mNPQhxR82B)"/><linearGradient id="AkLBDwIexvY7mNPQhxR82C" x1="55.5" x2="55.5" y1="6.781" y2="57.29" gradientUnits="userSpaceOnUse"><stop offset="0" stop-color="#1a6dff"/><stop offset="1" stop-color="#c822ff"/></linearGradient><rect width="3" height="6" x="54" y="23" fill="url(#AkLBDwIexvY7mNPQhxR82C)"/><linearGradient id="AkLBDwIexvY7mNPQhxR82D" x1="55.5" x2="55.5" y1="6.781" y2="57.29" gradientUnits="userSpaceOnUse"><stop offset="0" stop-color="#1a6dff"/><stop offset="1" stop-color="#c822ff"/></linearGradient><rect width="3" height="6" x="54" y="32" fill="url(#AkLBDwIexvY7mNPQhxR82D)"/><linearGradient id="AkLBDwIexvY7mNPQhxR82E" x1="52.5" x2="52.5" y1="6.781" y2="57.29" gradientUnits="userSpaceOnUse"><stop offset="0" stop-color="#1a6dff"/><stop offset="1" stop-color="#c822ff"/></linearGradient><rect width="3" height="2" x="51" y="29" fill="url(#AkLBDwIexvY7mNPQhxR82E)"/><linearGradient id="AkLBDwIexvY7mNPQhxR82F" x1="39.5" x2="39.5" y1="6.781" y2="57.29" gradientUnits="userSpaceOnUse"><stop offset="0" stop-color="#1a6dff"/><stop offset="1" stop-color="#c822ff"/></linearGradient><rect width="3" height="3" x="38" y="35" fill="url(#AkLBDwIexvY7mNPQhxR82F)"/><linearGradient id="AkLBDwIexvY7mNPQhxR82G" x1="49" x2="49" y1="6.781" y2="57.29" gradientUnits="userSpaceOnUse"><stop offset="0" stop-color="#1a6dff"/><stop offset="1" stop-color="#c822ff"/></linearGradient><rect width="4" height="3" x="47" y="35" fill="url(#AkLBDwIexvY7mNPQhxR82G)"/><linearGradient id="AkLBDwIexvY7mNPQhxR82H" x1="44" x2="44" y1="6.781" y2="57.29" gradientUnits="userSpaceOnUse"><stop offset="0" stop-color="#1a6dff"/><stop offset="1" stop-color="#c822ff"/></linearGradient><rect width="6" height="3" x="41" y="38" fill="url(#AkLBDwIexvY7mNPQhxR82H)"/><linearGradient id="AkLBDwIexvY7mNPQhxR82I" x1="15" x2="15" y1="6.781" y2="57.29" gradientUnits="userSpaceOnUse"><stop offset="0" stop-color="#1a6dff"/><stop offset="1" stop-color="#c822ff"/></linearGradient><rect width="4" height="3" x="13" y="54" fill="url(#AkLBDwIexvY7mNPQhxR82I)"/><linearGradient id="AkLBDwIexvY7mNPQhxR82J" x1="21.5" x2="21.5" y1="6.781" y2="57.29" gradientUnits="userSpaceOnUse"><stop offset="0" stop-color="#1a6dff"/><stop offset="1" stop-color="#c822ff"/></linearGradient><rect width="3" height="6" x="20" y="20" fill="url(#AkLBDwIexvY7mNPQhxR82J)"/><linearGradient id="AkLBDwIexvY7mNPQhxR82K" x1="15" x2="15" y1="6.781" y2="57.29" gradientUnits="userSpaceOnUse"><stop offset="0" stop-color="#1a6dff"/><stop offset="1" stop-color="#c822ff"/></linearGradient><rect width="4" height="6" x="13" y="20" fill="url(#AkLBDwIexvY7mNPQhxR82K)"/><linearGradient id="AkLBDwIexvY7mNPQhxR82L" x1="18.5" x2="18.5" y1="6.781" y2="57.29" gradientUnits="userSpaceOnUse"><stop offset="0" stop-color="#1a6dff"/><stop offset="1" stop-color="#c822ff"/></linearGradient><rect width="3" height="3" x="17" y="17" fill="url(#AkLBDwIexvY7mNPQhxR82L)"/><linearGradient id="AkLBDwIexvY7mNPQhxR82M" x1="11.5" x2="11.5" y1="6.781" y2="57.29" gradientUnits="userSpaceOnUse"><stop offset="0" stop-color="#1a6dff"/><stop offset="1" stop-color="#c822ff"/></linearGradient><rect width="3" height="3" x="10" y="26" fill="url(#AkLBDwIexvY7mNPQhxR82M)"/><linearGradient id="AkLBDwIexvY7mNPQhxR82N" x1="16.5" x2="16.5" y1="6.781" y2="57.29" gradientUnits="userSpaceOnUse"><stop offset="0" stop-color="#1a6dff"/><stop offset="1" stop-color="#c822ff"/></linearGradient><rect width="7" height="3" x="13" y="29" fill="url(#AkLBDwIexvY7mNPQhxR82N)"/><linearGradient id="AkLBDwIexvY7mNPQhxR82O" x1="11.5" x2="11.5" y1="6.781" y2="57.29" gradientUnits="userSpaceOnUse"><stop offset="0" stop-color="#1a6dff"/><stop offset="1" stop-color="#c822ff"/></linearGradient><rect width="3" height="3" x="10" y="32" fill="url(#AkLBDwIexvY7mNPQhxR82O)"/><linearGradient id="AkLBDwIexvY7mNPQhxR82P" x1="8.5" x2="8.5" y1="6.781" y2="57.29" gradientUnits="userSpaceOnUse"><stop offset="0" stop-color="#1a6dff"/><stop offset="1" stop-color="#c822ff"/></linearGradient><rect width="3" height="9" x="7" y="35" fill="url(#AkLBDwIexvY7mNPQhxR82P)"/><linearGradient id="AkLBDwIexvY7mNPQhxR82Q" x1="32" x2="32" y1="6.781" y2="57.29" gradientUnits="userSpaceOnUse"><stop offset="0" stop-color="#1a6dff"/><stop offset="1" stop-color="#c822ff"/></linearGradient><polygon fill="url(#AkLBDwIexvY7mNPQhxR82Q)" points="13,48 13,51 17,51 17,54 26,54 26,57 29,57 29,54 38,54 38,57 41,57 41,54 47,54 51,54 51,51 51,44 54,44 54,38 51,38 51,41 47,41 47,49 44,49 44,51 20,51 20,47 17,47 17,44 10,44 10,48"/></g></svg>